<svg width="56" height="56" viewBox="0 0 56 56" fill="none" xmlns="http://www.w3.org/2000/svg">
<g clip-path="url(#clip0)">
<path d="M55.5847 48.72L40.761 33.894C42.931 30.4757 44.184 26.4273 44.184 22.0897C44.1863 9.912 34.2743 0 22.092 0C9.90967 0 0 9.912 0 22.092C0 34.2743 9.90967 44.1863 22.092 44.1863C26.2173 44.1863 30.0743 43.05 33.383 41.076L48.307 56L55.5847 48.72ZM8.232 22.092C8.232 14.455 14.4503 8.23667 22.0897 8.23667C29.7313 8.23667 35.9497 14.4527 35.9497 22.092C35.9497 29.7337 29.7313 35.9497 22.0897 35.9497C14.4503 35.9497 8.232 29.7337 8.232 22.092Z" fill="#DA4C4C"/>
</g>
<defs>
<clipPath id="clip0">
<rect width="56" height="56" fill="white"/>
</clipPath>
</defs>
</svg>
