<svg width="48" height="48" viewBox="0 0 48 48" fill="none" xmlns="http://www.w3.org/2000/svg">
<path d="M9.304 0H12.184L14.16 7.404L15.992 0H18.9L15.57 11.01V18.524H12.708V11.01L9.304 0V0ZM22.492 4.746C20.254 4.746 18.77 6.226 18.77 8.416V15.114C18.77 17.522 20.028 18.776 22.492 18.776C24.536 18.776 26.144 17.41 26.144 15.114V8.416C26.144 6.278 24.55 4.746 22.492 4.746ZM23.554 15C23.554 15.744 23.174 16.292 22.49 16.292C21.788 16.292 21.382 15.718 21.382 15V8.642C21.382 7.894 21.726 7.34 22.44 7.34C23.22 7.34 23.554 7.878 23.554 8.642V15ZM33.012 4.86V15.232C32.702 15.62 32.012 16.256 31.518 16.256C30.976 16.256 30.842 15.884 30.842 15.336V4.86H28.302V16.28C28.302 17.63 28.714 18.72 30.076 18.72C30.844 18.72 31.912 18.32 33.012 17.014V18.522H35.552V4.86H33.012ZM37.418 32.576C36.522 32.576 36.336 33.206 36.336 34.102V35.42H38.474V34.1C38.476 33.22 38.29 32.576 37.418 32.576ZM28.012 32.656C27.844 32.742 27.678 32.874 27.512 33.052V41.162C27.71 41.374 27.9 41.526 28.086 41.62C28.48 41.82 29.056 41.834 29.324 41.486C29.464 41.302 29.534 41.004 29.534 40.588V33.87C29.534 33.43 29.448 33.098 29.276 32.87C28.982 32.484 28.436 32.442 28.012 32.656ZM37.666 22.266C32.458 21.912 15.534 21.912 10.334 22.266C4.706 22.65 4.042 26.05 4 35C4.042 43.934 4.7 47.35 10.334 47.734C15.534 48.088 32.458 48.088 37.666 47.734C43.294 47.35 43.958 43.948 44 35C43.958 26.066 43.3 22.65 37.666 22.266ZM13.018 43.638H10.292V28.558H7.472V25.998H15.836V28.558H13.016V43.638H13.018ZM22.71 43.638H20.29V42.202C19.844 42.732 19.38 43.136 18.898 43.412C17.594 44.16 15.804 44.142 15.804 41.502V30.626H18.222V40.602C18.222 41.126 18.348 41.478 18.866 41.478C19.338 41.478 19.994 40.872 20.288 40.504V30.626H22.708V43.638H22.71ZM32.024 40.942C32.024 42.552 31.422 43.804 29.812 43.804C28.926 43.804 28.188 43.48 27.514 42.638V43.638H25.072V25.998H27.514V31.678C28.06 31.012 28.802 30.462 29.666 30.462C31.438 30.462 32.026 31.96 32.026 33.724V40.942H32.024ZM40.966 37.438H36.338V39.894C36.338 40.87 36.422 41.714 37.394 41.714C38.416 41.714 38.476 41.026 38.476 39.894V38.99H40.966V39.968C40.966 42.474 39.89 43.994 37.34 43.994C35.03 43.994 33.848 42.31 33.848 39.968V34.126C33.848 31.868 35.34 30.298 37.522 30.298C39.844 30.298 40.964 31.774 40.964 34.126V37.438H40.966Z" fill="#DF3E3E"/>
</svg>
